<?xml version="1.0" encoding="UTF-8"?>
<svg xmlns="http://www.w3.org/2000/svg" xmlns:xlink="http://www.w3.org/1999/xlink" width="45px" height="45px" viewBox="0 0 45 45" version="1.1">
<g id="surface1">

<path style=" stroke:none;fill-rule:nonzero;fill:rgb(92.941176%,10.588235%,14.117647%);fill-opacity:1;" d="M 33.730469 26.449219 C 33.578125 26.792969 33.238281 27.015625 32.863281 27.011719 C 32.484375 27.011719 32.144531 26.785156 31.996094 26.4375 L 30.300781 22.449219 L 27.976562 32.558594 C 27.878906 32.96875 27.523438 33.265625 27.101562 33.28125 C 26.675781 33.300781 26.289062 33.03125 26.160156 32.625 L 20.878906 16.054688 L 18.054688 26.992188 C 17.929688 27.5 17.417969 27.804688 16.910156 27.675781 C 16.640625 27.609375 16.417969 27.421875 16.296875 27.171875 L 13.648438 21.742188 L 2.355469 21.742188 C 5.449219 26.769531 10.824219 30.757812 15.429688 35.503906 C 19.476562 39.625 22.5 42.976562 22.5 42.976562 C 22.5 42.976562 25.519531 39.625 29.503906 35.53125 C 34.527344 30.34375 40.476562 26.0625 43.378906 20.347656 L 36.382812 20.347656 Z M 33.730469 26.449219 "/>
<path style=" stroke:none;fill-rule:nonzero;fill:rgb(92.941176%,10.588235%,14.117647%);fill-opacity:1;" d="M 32.984375 2.03125 C 24.984375 1.746094 22.5 9.457031 22.5 9.457031 C 22.5 9.457031 20.011719 1.746094 12.011719 2.039062 C 4.011719 2.332031 -1.488281 10.019531 0.359375 17.101562 C 0.613281 18.070312 0.960938 19.015625 1.394531 19.925781 L 14.269531 19.925781 C 14.632812 19.921875 14.960938 20.128906 15.117188 20.453125 L 16.851562 24.058594 L 19.824219 12.421875 C 19.953125 11.917969 20.46875 11.613281 20.96875 11.742188 C 21.28125 11.824219 21.53125 12.058594 21.632812 12.367188 L 26.867188 28.78125 L 29.089844 19.191406 C 29.199219 18.683594 29.703125 18.359375 30.210938 18.472656 C 30.507812 18.539062 30.757812 18.746094 30.875 19.03125 L 32.851562 23.691406 L 34.878906 19.03125 C 35.027344 18.6875 35.367188 18.464844 35.742188 18.464844 L 44.214844 18.464844 C 44.386719 18.011719 44.527344 17.523438 44.648438 17.0625 C 46.476562 10.011719 40.976562 2.320312 32.984375 2.03125 Z M 32.984375 2.03125 "/>
</g>
</svg>
